<svg width="70" height="70" viewBox="0 0 70 70" fill="none" xmlns="http://www.w3.org/2000/svg">
<path d="M25 10H37L52 26.6667V51.1111C52 54.2225 52 55.7783 51.455 56.9667C50.9757 58.0119 50.2108 58.8619 49.27 59.3944C48.2246 59.9863 46.8632 59.9997 44.1873 60C44.1255 60 44.0631 60 44 60H25C24.9385 60 24.8776 60 24.8174 60C22.1384 59.9997 20.7761 59.9867 19.7301 59.3944C18.7892 58.8619 18.0243 58.0119 17.545 56.9667C17 55.7783 17 54.2225 17 51.1111V18.8889C17 15.7775 17 14.2218 17.545 13.0334C18.0243 11.988 18.7892 11.1381 19.7301 10.6055C20.7996 10 22.1997 10 25 10Z" fill="white"/>
<path d="M52 26.6667L37 10H25C22.1997 10 20.7996 10 19.7301 10.6055C18.7892 11.1381 18.0243 11.988 17.545 13.0334C17 14.2218 17 15.7775 17 18.8889V51.1111C17 54.2225 17 55.7783 17.545 56.9667C18.0243 58.0119 18.7892 58.8619 19.7301 59.3944C20.7996 60 22.1997 60 25 60H44C46.8003 60 48.2005 60 49.27 59.3944C50.2108 58.8619 50.9757 58.0119 51.455 56.9667C52 55.7783 52 54.2225 52 51.1111V26.6667ZM37 10V22.2222C37 23.7779 37 24.5558 37.2725 25.15C37.5123 25.6726 37.8945 26.0976 38.365 26.3639C38.8997 26.6667 39.5998 26.6667 41 26.6667H52M24.8174 60C25.9275 55.2078 29.8428 51.6667 34.5023 51.6667C39.162 51.6667 43.0772 55.2078 44.1872 60M37 40.5556C37 42.0897 35.8807 43.3333 34.5 43.3333C33.1193 43.3333 32 42.0897 32 40.5556C32 39.0214 33.1193 37.7778 34.5 37.7778C35.8807 37.7778 37 39.0214 37 40.5556Z" stroke="black" stroke-width="2" stroke-linecap="round" stroke-linejoin="round"/>
</svg>
